<?xml version="1.0" encoding="UTF-8" standalone="no"?>
<svg
   xmlns:ooo="http://xml.openoffice.org/svg/export"
   xmlns:dc="http://purl.org/dc/elements/1.1/"
   xmlns:cc="http://creativecommons.org/ns#"
   xmlns:rdf="http://www.w3.org/1999/02/22-rdf-syntax-ns#"
   xmlns:svg="http://www.w3.org/2000/svg"
   xmlns="http://www.w3.org/2000/svg"
   xmlns:sodipodi="http://sodipodi.sourceforge.net/DTD/sodipodi-0.dtd"
   xmlns:inkscape="http://www.inkscape.org/namespaces/inkscape"
   version="1.2"
   width="30.48mm"
   height="23.11mm"
   viewBox="0 0 3048 2311"
   preserveAspectRatio="xMidYMid"
   fill-rule="evenodd"
   clip-path="url(#presentation_clip_path)"
   stroke-width="28.222"
   stroke-linejoin="round"
   xml:space="preserve"
   id="svg69"
   sodipodi:docname="swc-icon-transp.svg"
   inkscape:version="0.92.1 r15371"><metadata
     id="metadata73"><rdf:RDF><cc:Work
         rdf:about=""><dc:format>image/svg+xml</dc:format><dc:type
           rdf:resource="http://purl.org/dc/dcmitype/StillImage" /></cc:Work></rdf:RDF></metadata><sodipodi:namedview
     pagecolor="#ffffff"
     bordercolor="#666666"
     borderopacity="1"
     objecttolerance="10"
     gridtolerance="10"
     guidetolerance="10"
     inkscape:pageopacity="0"
     inkscape:pageshadow="2"
     inkscape:window-width="1263"
     inkscape:window-height="1131"
     id="namedview71"
     showgrid="false"
     inkscape:zoom="3.8211099"
     inkscape:cx="48.463637"
     inkscape:cy="43.672442"
     inkscape:window-x="1068"
     inkscape:window-y="96"
     inkscape:window-maximized="0"
     inkscape:current-layer="id5" /><defs
     class="ClipPathGroup"
     id="defs5"><clipPath
       id="presentation_clip_path"
       clipPathUnits="userSpaceOnUse"><rect
         x="0"
         y="0"
         width="3048"
         height="2311"
         id="rect2" /></clipPath></defs><defs
     class="TextShapeIndex"
     id="defs9"><g
       ooo:slide="id1"
       ooo:id-list="id3 id4 id5"
       id="g7" /></defs><defs
     class="EmbeddedBulletChars"
     id="defs38"><g
       id="bullet-char-template(57356)"
       transform="scale(0.00048828125,-0.00048828125)"><path
         d="M 580,1141 L 1163,571 580,0 -4,571 580,1141 Z"
         id="path11" /></g><g
       id="bullet-char-template(57354)"
       transform="scale(0.00048828125,-0.00048828125)"><path
         d="M 8,1128 L 1137,1128 1137,0 8,0 8,1128 Z"
         id="path14" /></g><g
       id="bullet-char-template(10146)"
       transform="scale(0.00048828125,-0.00048828125)"><path
         d="M 174,0 L 602,739 174,1481 1456,739 174,0 Z M 1358,739 L 309,1346 659,739 1358,739 Z"
         id="path17" /></g><g
       id="bullet-char-template(10132)"
       transform="scale(0.00048828125,-0.00048828125)"><path
         d="M 2015,739 L 1276,0 717,0 1260,543 174,543 174,936 1260,936 717,1481 1274,1481 2015,739 Z"
         id="path20" /></g><g
       id="bullet-char-template(10007)"
       transform="scale(0.00048828125,-0.00048828125)"><path
         d="M 0,-2 C -7,14 -16,27 -25,37 L 356,567 C 262,823 215,952 215,954 215,979 228,992 255,992 264,992 276,990 289,987 310,991 331,999 354,1012 L 381,999 492,748 772,1049 836,1024 860,1049 C 881,1039 901,1025 922,1006 886,937 835,863 770,784 769,783 710,716 594,584 L 774,223 C 774,196 753,168 711,139 L 727,119 C 717,90 699,76 672,76 641,76 570,178 457,381 L 164,-76 C 142,-110 111,-127 72,-127 30,-127 9,-110 8,-76 1,-67 -2,-52 -2,-32 -2,-23 -1,-13 0,-2 Z"
         id="path23" /></g><g
       id="bullet-char-template(10004)"
       transform="scale(0.00048828125,-0.00048828125)"><path
         d="M 285,-33 C 182,-33 111,30 74,156 52,228 41,333 41,471 41,549 55,616 82,672 116,743 169,778 240,778 293,778 328,747 346,684 L 369,508 C 377,444 397,411 428,410 L 1163,1116 C 1174,1127 1196,1133 1229,1133 1271,1133 1292,1118 1292,1087 L 1292,965 C 1292,929 1282,901 1262,881 L 442,47 C 390,-6 338,-33 285,-33 Z"
         id="path26" /></g><g
       id="bullet-char-template(9679)"
       transform="scale(0.00048828125,-0.00048828125)"><path
         d="M 813,0 C 632,0 489,54 383,161 276,268 223,411 223,592 223,773 276,916 383,1023 489,1130 632,1184 813,1184 992,1184 1136,1130 1245,1023 1353,916 1407,772 1407,592 1407,412 1353,268 1245,161 1136,54 992,0 813,0 Z"
         id="path29" /></g><g
       id="bullet-char-template(8226)"
       transform="scale(0.00048828125,-0.00048828125)"><path
         d="M 346,457 C 273,457 209,483 155,535 101,586 74,649 74,723 74,796 101,859 155,911 209,963 273,989 346,989 419,989 480,963 531,910 582,859 608,796 608,723 608,648 583,586 532,535 482,483 420,457 346,457 Z"
         id="path32" /></g><g
       id="bullet-char-template(8211)"
       transform="scale(0.00048828125,-0.00048828125)"><path
         d="M -4,459 L 1135,459 1135,606 -4,606 -4,459 Z"
         id="path35" /></g></defs><defs
     class="TextEmbeddedBitmaps"
     id="defs40" /><g
     id="g45"
     style="display:none"><g
       id="id2"
       class="Master_Slide"><g
         id="bg-id2"
         class="Background" /><g
         id="bo-id2"
         class="BackgroundObjects"
         style="display:inline" /></g></g><g
     class="SlideGroup"
     id="g67"
     style="display:inline"><g
       id="g65"><g
         id="id1"
         class="Slide"
         clip-path="url(#presentation_clip_path)"><g
           class="Page"
           id="g62"><g
             class="com.sun.star.drawing.ClosedBezierShape"
             id="g50"><g
               id="id3"><path
                 d="m 2920,575 c -40,-43 -239,-38 -294,-39 -302,-2 -866,15 -1149,15 -11,0 -50,19 -44,35 -200,0 -306,1 -548,-2 C 754,583 442,599 434,368 430,252 536,150 661,26 581,2 501,55 420,100 381,139 354,165 321,198 199,376 151,556 180,737 290,716 372,867 295,938 l -69,1 c -33,0 -59,34 -58,74 l 2,160 c 1,41 28,68 60,68 h 348 c 32,-1 58,-34 57,-75 l -2,-160 c 0,-40 -27,-73 -60,-72 H 530 C 453,719 700,747 840,749 c 262,2 350,1 581,1 13,16 7,46 43,61 23,9 1413,6 1438,0 25,-6 18,-18 27,-27 12,-48 39,-156 -9,-209 z M 576,964 v 170 c 0,0 -5,-111 -50,-118 -46,-7 -20,-52 -20,-52 z M 2905,651 c 0,0 -41,-14 -74,-35 -71,-46 -1332,-5 -1332,-5 l 36,-30 c 0,0 1285,-22 1329,0 44,22 41,70 41,70 z"
                 id="path47"
                 inkscape:connector-curvature="0"
                 style="display:none;fill:#2b3990;stroke:none" /></g></g><g
             class="com.sun.star.drawing.ClosedBezierShape"
             id="g55"><g
               id="id4"><path
                 d="m 293,1357 c 0,0 -9,28 0,37 8,9 51,12 51,12 v 535 l 85,61 73,-68 v -523 l 22,-5 c 34,9 42,-21 42,-21 v -28 z m 179,571 -24,10 v -524 l 24,-8 z m 64,-545 c -25,2 -188,-17 -188,-17 h 188 c 0,0 26,16 0,17 z"
                 id="path52"
                 inkscape:connector-curvature="0"
                 style="display:none;fill:#2b3990;stroke:none" /></g></g><g
             class="com.sun.star.drawing.ClosedBezierShape"
             id="g60"><g
               id="id5"><path
                 d="m 693,1589 -2,-1 c -14,-14 -33,-22 -53,-22 -43,0 -77,35 -77,77 0,20 7,39 22,54 l 1,1 c 2,3 5,5 8,7 53,47 84,115 84,185 0,138 -111,248 -249,248 -136,0 -247,-110 -247,-248 0,-69 29,-136 81,-182 22,-15 34,-39 34,-65 0,-42 -34,-77 -77,-77 -20,0 -39,8 -54,22 l -1,2 -1,-1 c -87,76 -136,186 -136,301 0,222 180,402 401,402 222,0 402,-180 402,-402 0,-115 -49,-225 -136,-301 z"
                 id="path57"
                 inkscape:connector-curvature="0"
                 style="display:none;fill:#2b3990;stroke:none" /></g></g></g></g></g></g></svg>